<svg xmlns="http://www.w3.org/2000/svg"  viewBox="0 0 48 48" width="48px" height="48px" baseProfile="basic"><path fill="#f2ca00" d="M42,42H6c0-9.938,8.062-18,18-18S42,32.062,42,42z"/><path fill="#324561" d="M47,43H1c-0.553,0-1-0.447-1-1s0.447-1,1-1h46c0.553,0,1,0.447,1,1S47.553,43,47,43z"/><path fill="#324561" d="M30,10c-0.27,0-0.538-0.108-0.734-0.321L24,3.975l-5.266,5.704c-0.373,0.405-1.007,0.431-1.413,0.056	c-0.405-0.374-0.431-1.007-0.056-1.413l5.266-5.704c0.754-0.816,2.183-0.817,2.938,0.001l5.265,5.703	c0.375,0.406,0.35,1.039-0.056,1.413C30.486,9.912,30.243,10,30,10z"/><path fill="#324561" d="M24,22c-0.553,0-1-0.447-1-1V4c0-0.553,0.447-1,1-1s1,0.447,1,1v17C25,21.553,24.553,22,24,22z"/><path fill="#324561" d="M24,22c-0.553,0-1-0.447-1-1v-4c0-0.553,0.447-1,1-1s1,0.447,1,1v4C25,21.553,24.553,22,24,22z"/><path fill="#324561" d="M34.499,24.813c-0.17,0-0.342-0.043-0.499-0.134c-0.479-0.276-0.643-0.888-0.366-1.366l2-3.464	c0.276-0.479,0.889-0.643,1.366-0.366c0.479,0.276,0.643,0.888,0.366,1.366l-2,3.464C35.181,24.635,34.845,24.813,34.499,24.813z"/><path fill="#324561" d="M42.188,32.5c-0.346,0-0.682-0.179-0.867-0.5c-0.276-0.479-0.112-1.09,0.366-1.366l3.464-2	c0.476-0.276,1.089-0.113,1.366,0.366c0.276,0.479,0.112,1.09-0.366,1.366l-3.464,2C42.529,32.457,42.357,32.5,42.188,32.5z"/><path fill="#324561" d="M13.501,24.813c-0.346,0-0.682-0.179-0.867-0.5l-2-3.464c-0.276-0.479-0.112-1.09,0.366-1.366	c0.477-0.276,1.089-0.113,1.366,0.366l2,3.464c0.276,0.479,0.112,1.09-0.366,1.366C13.843,24.771,13.671,24.813,13.501,24.813z"/><path fill="#324561" d="M5.812,32.5c-0.17,0-0.342-0.043-0.499-0.134l-3.464-2C1.371,30.09,1.207,29.479,1.483,29	c0.276-0.479,0.888-0.643,1.366-0.366l3.464,2C6.792,30.91,6.956,31.521,6.68,32C6.494,32.321,6.158,32.5,5.812,32.5z"/></svg>